<svg xmlns="http://www.w3.org/2000/svg" width="968.53" height="103.12" viewBox="0 0 968.53 103.12"><path d="M47,81.3l-13.59,0-3.7,0c.69-.77,1.38-1.53,2.05-2.3q4.64-5.23,8.87-10.47L80.43,18.86V1.54H.94V21.82h33.3q6.78,0,13.49,0c1.16,0,2.31,0,3.47,0l-2,2.16Q44.65,29,40.48,34.17L0,84.25v17.32H80.83V81.3Z" fill="#fff"/><path d="M91.91,101.57V1.54h73.37V21.82H115.94v19.6h45.52V61.09H115.94V81.3h49.27v20.27Z" fill="#fff"/><path d="M240.67,1.54V44.71c0,2.46.05,5.71.14,9.73s.22,8.15.4,12.45c-.58-1.14-1.15-2.28-1.75-3.42q-2.61-5-5-9.29c-1.59-2.87-3-5.28-4.19-7.25L201.94,1.54H176.76v100h24.17V60c0-2.06,0-4.84-.1-8.36s-.19-7.48-.37-11.91q-.06-1.65-.15-3.33c.72,1.35,1.44,2.69,2.13,4q3.26,6.1,6.11,11T213.62,60l26,41.62h25.24V1.54Z" fill="#fff"/><path d="M302.44,1.54v100h-24V1.54Z" fill="#fff"/><path d="M312.37,21.82V1.54h83.25V21.82H366v79.75H342V21.82Z" fill="#fff"/><path d="M405.62,101.57V1.54h24V40.48h38.47V1.54h24v100h-24V60.76H429.65v40.81Z" fill="#fff"/><path d="M505.72,101.57V1.54H577V21.82h-47.2V44h43.91v19.6H529.75v37.93Z" fill="#38bdf8"/><path d="M631.73,103.12A48.87,48.87,0,0,1,607.32,97,43.78,43.78,0,0,1,590.2,79.39q-6.27-11.52-6.27-27.76T590.2,23.7A43.47,43.47,0,0,1,607.32,6.08a51.82,51.82,0,0,1,48.71,0A44,44,0,0,1,673.18,23.7q6.35,11.55,6.34,27.93t-6.34,27.82A44,44,0,0,1,656,97,48.76,48.76,0,0,1,631.73,103.12Zm0-21a21.73,21.73,0,0,0,12.45-3.55,22.92,22.92,0,0,0,8.16-10.41,42.5,42.5,0,0,0,2.88-16.51A43,43,0,0,0,652.34,35a22.86,22.86,0,0,0-8.16-10.44,23.57,23.57,0,0,0-24.91,0A22.77,22.77,0,0,0,611.12,35a42.82,42.82,0,0,0-2.89,16.62,42.31,42.31,0,0,0,2.89,16.51,22.84,22.84,0,0,0,8.15,10.41A21.77,21.77,0,0,0,631.73,82.1Z" fill="#38bdf8"/><path d="M735.25,103.12A49.16,49.16,0,0,1,710.78,97a43.4,43.4,0,0,1-17.12-17.62q-6.28-11.55-6.28-27.79t6.28-27.93A43.4,43.4,0,0,1,710.78,6.08,49.16,49.16,0,0,1,735.25,0,51.55,51.55,0,0,1,752.1,2.65a42.63,42.63,0,0,1,13.62,7.59,40.37,40.37,0,0,1,9.67,11.88,43.84,43.84,0,0,1,4.84,15.61H755.92a21.67,21.67,0,0,0-2.41-7,18.57,18.57,0,0,0-4.37-5.24,19,19,0,0,0-6-3.29A23.12,23.12,0,0,0,735.72,21,21.51,21.51,0,0,0,714.5,35.18a43.13,43.13,0,0,0-2.82,16.45A42.84,42.84,0,0,0,714.5,68,21.46,21.46,0,0,0,735.65,82.1,23.93,23.93,0,0,0,743.1,81a18.25,18.25,0,0,0,6-3.29,19.29,19.29,0,0,0,4.36-5.24,23.66,23.66,0,0,0,2.55-7h24.24a43.54,43.54,0,0,1-4.64,15.07,40.64,40.64,0,0,1-9.5,12,42.66,42.66,0,0,1-13.66,7.85A50.63,50.63,0,0,1,735.25,103.12Z" fill="#38bdf8"/><path d="M832.79,103.12q-12.75,0-22.22-4.6a34.24,34.24,0,0,1-19.94-32.19V1.54h23.56V64.31a18.61,18.61,0,0,0,2.35,9.4,17,17,0,0,0,6.52,6.45,21.34,21.34,0,0,0,19.47,0A16.88,16.88,0,0,0,849,73.75a18.66,18.66,0,0,0,2.32-9.44V1.54h23.56V66.33a34.2,34.2,0,0,1-19.94,32.19Q845.47,103.11,832.79,103.12Z" fill="#38bdf8"/><path d="M927.78,103.12q-13.08,0-22.42-4A30.74,30.74,0,0,1,891.1,87.41q-4.94-7.72-5-18.87h23a15.15,15.15,0,0,0,2.56,8.16,14.72,14.72,0,0,0,6.51,5.17,24.71,24.71,0,0,0,9.8,1.78,26.24,26.24,0,0,0,8.83-1.34,13.31,13.31,0,0,0,5.8-3.8,8.47,8.47,0,0,0,2.08-5.67,7.44,7.44,0,0,0-1.77-5,14.77,14.77,0,0,0-5.54-3.66,52.73,52.73,0,0,0-9.67-2.78l-10.27-2.22q-14.29-3-21.75-10t-7.45-18.1a27.4,27.4,0,0,1,5-16.31A32.68,32.68,0,0,1,907,3.89,50.62,50.62,0,0,1,927.45,0Q939.33,0,948,3.93A31.13,31.13,0,0,1,961.45,15.1a32.31,32.31,0,0,1,5.07,17.33H944a12.78,12.78,0,0,0-4.83-9.5q-4.37-3.46-11.55-3.46a22.26,22.26,0,0,0-8,1.31,12.08,12.08,0,0,0-5.33,3.66,8.3,8.3,0,0,0-1.88,5.37,7.26,7.26,0,0,0,1.68,4.86,13.45,13.45,0,0,0,5.2,3.46,50,50,0,0,0,9,2.62l8.8,1.81a70.47,70.47,0,0,1,14,4.16,35,35,0,0,1,9.8,6.11A22.48,22.48,0,0,1,966.65,61a27.53,27.53,0,0,1,1.88,10.48,29.51,29.51,0,0,1-4.83,17,30.37,30.37,0,0,1-14,10.84Q940.61,103.11,927.78,103.12Z" fill="#38bdf8"/></svg>