<svg xmlns="http://www.w3.org/2000/svg" width="664" height="768" viewBox="0 0 664 768"><path d="M618.88,181.11a31.9,31.9,0,0,1-9.37,22.63l-21.2,21.2q-10.15-12.3-21.55-23.7t-23.7-21.55l21.2-21.2a32,32,0,0,1,54.62,22.62Z" fill="#38bdf8"/><path d="M355,458.23a32,32,0,1,1-46-44.46C321.26,401.06,471.16,291.9,471.16,291.9S367.3,445.52,355,458.23Z" fill="#38bdf8"/><rect x="211.78" width="240.45" height="64" rx="32" fill="#38bdf8"/><path d="M637.9,306.76a330.51,330.51,0,0,0-49.59-81.82q-10.15-12.3-21.55-23.7t-23.7-21.55A331.35,331.35,0,1,0,637.9,306.76ZM332,704C184.22,704,64,583.78,64,436S184.22,168,332,168a266.72,266.72,0,0,1,165.45,57.3,270.57,270.57,0,0,1,45.25,45.25A266.72,266.72,0,0,1,600,436C600,583.78,479.78,704,332,704Z" fill="#38bdf8"/></svg>